<?xml version="1.0" encoding="UTF-8" standalone="no"?>
<!-- Created with Inkscape (http://www.inkscape.org/) -->

<svg
   xmlns:dc="http://purl.org/dc/elements/1.1/"
   xmlns:cc="http://creativecommons.org/ns#"
   xmlns:rdf="http://www.w3.org/1999/02/22-rdf-syntax-ns#"
   xmlns:svg="http://www.w3.org/2000/svg"
   xmlns="http://www.w3.org/2000/svg"
   xmlns:sodipodi="http://sodipodi.sourceforge.net/DTD/sodipodi-0.dtd"
   xmlns:inkscape="http://www.inkscape.org/namespaces/inkscape"
   id="svg4902"
   version="1.1"
   inkscape:version="0.47 r22583"
   width="613.75"
   height="520"
   xml:space="preserve"
   sodipodi:docname="Cause and effect diagram for defect XXX.pdf"><metadata
     id="metadata4908"><rdf:RDF><cc:Work
         rdf:about=""><dc:format>image/svg+xml</dc:format><dc:type
           rdf:resource="http://purl.org/dc/dcmitype/StillImage" /><dc:title></dc:title></cc:Work></rdf:RDF></metadata><defs
     id="defs4906"><inkscape:perspective
       sodipodi:type="inkscape:persp3d"
       inkscape:vp_x="0 : 0.5 : 1"
       inkscape:vp_y="0 : 1000 : 0"
       inkscape:vp_z="1 : 0.5 : 1"
       inkscape:persp3d-origin="0.5 : 0.33333333 : 1"
       id="perspective4910" /><clipPath
       clipPathUnits="userSpaceOnUse"
       id="clipPath4920"><path
         d="m 14.4,14.4 463.2,0 0,359.4 -463.2,0 0,-359.4 z"
         id="path4922" /></clipPath><clipPath
       clipPathUnits="userSpaceOnUse"
       id="clipPath4928"><path
         d="M 0,0 492,0 492,417 0,417 0,0 z"
         id="path4930" /></clipPath><clipPath
       clipPathUnits="userSpaceOnUse"
       id="clipPath4940"><path
         d="m 14.4,14.4 463.2,0 0,359.4 -463.2,0 0,-359.4 z"
         id="path4942" /></clipPath></defs><sodipodi:namedview
     pagecolor="#ffffff"
     bordercolor="#666666"
     borderopacity="1"
     objecttolerance="10"
     gridtolerance="10"
     guidetolerance="10"
     inkscape:pageopacity="0"
     inkscape:pageshadow="2"
     inkscape:window-width="640"
     inkscape:window-height="481"
     id="namedview4904"
     showgrid="false"
     inkscape:zoom="0.45384615"
     inkscape:cx="306.875"
     inkscape:cy="260"
     inkscape:window-x="0"
     inkscape:window-y="0"
     inkscape:window-maximized="0"
     inkscape:current-layer="g4912" /><g
     id="g4912"
     inkscape:groupmode="layer"
     inkscape:label="Cause and effect diagram for defect XXX"
     transform="matrix(1.25,0,0,-1.25,0,520)"><g
       id="g4914" /><g
       id="g4916"><g
         id="g4918"
         clip-path="url(#clipPath4920)" /></g><g
       id="g4924"><g
         id="g4926"
         clip-path="url(#clipPath4928)"><text
           transform="matrix(1,0,0,-1,131.33,390.37)"
           id="text4932"><tspan
             style="fill:#000000;fill-opacity:1;fill-rule:nonzero;stroke:none;font-family:Helvetica;font-variant:normal;font-weight:bold;font-size:14;writing-mode:lr;-inkscape-font-specification:Helvetica-Bold"
             x="0 8.274 16.058 23.842 28.504 37.058 42.294 50.078 53.97 61.754 70.308 78.862 83.524 88.97 92.862 101.136 109.69 114.352 118.244 126.798 135.352 139.244 143.906 152.46 156.352 164.906 172.69 177.212 184.996 192.78 197.442 201.334 210.672 220.01"
             y="0"
             sodipodi:role="line"
             id="tspan4934">Factors contributing to defect XXX</tspan></text>
</g></g><g
       id="g4936"><g
         id="g4938"
         clip-path="url(#clipPath4940)"><path
           d="m 31.56,194.1 373.28,0"
           style="fill:none;stroke:#000000;stroke-opacity:1;stroke-width:0.75;stroke-linecap:round;stroke-linejoin:round;stroke-miterlimit:10;stroke-dasharray:none"
           id="path4944" /><path
           d="m 398.07,191.64 6.77,2.46 -6.77,2.46"
           style="fill:none;stroke:#000000;stroke-opacity:1;stroke-width:0.75;stroke-linecap:round;stroke-linejoin:round;stroke-miterlimit:10;stroke-dasharray:none"
           id="path4946" /><text
           transform="matrix(1,0,0,-1,409.13,189.79)"
           id="text4948"><tspan
             style="fill:#000000;fill-opacity:1;fill-rule:nonzero;stroke:none;font-family:Helvetica;font-variant:normal;font-weight:bold;font-size:12;writing-mode:lr;-inkscape-font-specification:Helvetica-Bold"
             x="0 8.664 15.336 19.212 25.884 32.556 36.552 39.888 47.892 55.896"
             y="0"
             sodipodi:role="line"
             id="tspan4950">Defect XXX</tspan></text>
<path
           d="M 78.75,343.85 125.95,194.1"
           style="fill:none;stroke:#000000;stroke-opacity:1;stroke-width:0.75;stroke-linecap:round;stroke-linejoin:round;stroke-miterlimit:10;stroke-dasharray:none"
           id="path4952" /><text
           transform="matrix(1,0,0,-1,39.07,354.38)"
           id="text4954"><tspan
             style="fill:#000000;fill-opacity:1;fill-rule:nonzero;stroke:none;font-family:Helvetica;font-variant:normal;font-weight:normal;font-size:12;writing-mode:lr;-inkscape-font-specification:Helvetica"
             x="0 9.996 16.668 23.34 29.34 36.012 40.008 46.68 56.676 63.348 70.02 73.356"
             y="0"
             sodipodi:role="line"
             id="tspan4956">Measurements</tspan></text>
<path
           d="m 78.75,44.35 47.2,149.75"
           style="fill:none;stroke:#000000;stroke-opacity:1;stroke-width:0.75;stroke-linecap:round;stroke-linejoin:round;stroke-miterlimit:10;stroke-dasharray:none"
           id="path4958" /><text
           transform="matrix(1,0,0,-1,45.19,26.64)"
           id="text4960"><tspan
             style="fill:#000000;fill-opacity:1;fill-rule:nonzero;stroke:none;font-family:Helvetica;font-variant:normal;font-weight:normal;font-size:12;writing-mode:lr;-inkscape-font-specification:Helvetica"
             x="0 8.004 14.436 20.436 23.1 27.096 33.768 40.44 50.436 57.108 63.78"
             y="0"
             sodipodi:role="line"
             id="tspan4962">Environment</tspan></text>
<path
           d="M 173.14,343.85 220.34,194.1"
           style="fill:none;stroke:#000000;stroke-opacity:1;stroke-width:0.75;stroke-linecap:round;stroke-linejoin:round;stroke-miterlimit:10;stroke-dasharray:none"
           id="path4964" /><text
           transform="matrix(1,0,0,-1,148.72,354.38)"
           id="text4966"><tspan
             style="fill:#000000;fill-opacity:1;fill-rule:nonzero;stroke:none;font-family:Helvetica;font-variant:normal;font-weight:normal;font-size:12;writing-mode:lr;-inkscape-font-specification:Helvetica"
             x="0 9.996 16.668 20.004 26.676 30.852 33.516 40.188 42.852"
             y="0"
             sodipodi:role="line"
             id="tspan4968">Materials</tspan></text>
<path
           d="m 173.14,44.35 47.2,149.75"
           style="fill:none;stroke:#000000;stroke-opacity:1;stroke-width:0.75;stroke-linecap:round;stroke-linejoin:round;stroke-miterlimit:10;stroke-dasharray:none"
           id="path4970" /><text
           transform="matrix(1,0,0,-1,150.13,26.64)"
           id="text4972"><tspan
             style="fill:#000000;fill-opacity:1;fill-rule:nonzero;stroke:none;font-family:Helvetica;font-variant:normal;font-weight:normal;font-size:12;writing-mode:lr;-inkscape-font-specification:Helvetica"
             x="0 9.996 16.668 20.004 26.676 33.348 40.02"
             y="0"
             sodipodi:role="line"
             id="tspan4974">Methods</tspan></text>
<path
           d="M 267.54,343.85 314.73,194.1"
           style="fill:none;stroke:#000000;stroke-opacity:1;stroke-width:0.75;stroke-linecap:round;stroke-linejoin:round;stroke-miterlimit:10;stroke-dasharray:none"
           id="path4976" /><text
           transform="matrix(1,0,0,-1,240.82,354.38)"
           id="text4978"><tspan
             style="fill:#000000;fill-opacity:1;fill-rule:nonzero;stroke:none;font-family:Helvetica;font-variant:normal;font-weight:normal;font-size:12;writing-mode:lr;-inkscape-font-specification:Helvetica"
             x="0 7.404 14.076 18.072 24.072 30.744 37.416 44.088 50.76"
             y="0"
             sodipodi:role="line"
             id="tspan4980">Personnel</tspan></text>
<path
           d="M 267.54,44.35 314.73,194.1"
           style="fill:none;stroke:#000000;stroke-opacity:1;stroke-width:0.75;stroke-linecap:round;stroke-linejoin:round;stroke-miterlimit:10;stroke-dasharray:none"
           id="path4982" /><text
           transform="matrix(1,0,0,-1,241.86,26.64)"
           id="text4984"><tspan
             style="fill:#000000;fill-opacity:1;fill-rule:nonzero;stroke:none;font-family:Helvetica;font-variant:normal;font-weight:normal;font-size:12;writing-mode:lr;-inkscape-font-specification:Helvetica"
             x="0 9.996 16.668 22.668 29.34 32.004 38.676 45.348"
             y="0"
             sodipodi:role="line"
             id="tspan4986">Machines</tspan></text>
<text
           transform="matrix(1,0,0,-1,93.43,303.78)"
           id="text4988"><tspan
             style="fill:#000000;fill-opacity:1;fill-rule:nonzero;stroke:none;font-family:Helvetica;font-style:oblique;font-variant:normal;font-size:11;writing-mode:lr;-inkscape-font-specification:Helvetica-Oblique"
             x="0 7.942 14.058 16.5 18.942 25.058 28.611 34.727 37.785 40.227 46.343"
             y="0"
             sodipodi:role="line"
             id="tspan4990">Calibration</tspan></text>
<text
           transform="matrix(1,0,0,-1,105.23,266.34)"
           id="text4992"><tspan
             style="fill:#000000;fill-opacity:1;fill-rule:nonzero;stroke:none;font-family:Helvetica;font-style:oblique;font-variant:normal;font-size:11;writing-mode:lr;-inkscape-font-specification:Helvetica-Oblique"
             x="0 9.163 11.605 17.105 20.768 26.884 32.384 37.884 44 50.116 56.232"
             y="0"
             sodipodi:role="line"
             id="tspan4994">Microscopes</tspan></text>
<text
           transform="matrix(1,0,0,-1,117.03,228.91)"
           id="text4996"><tspan
             style="fill:#000000;fill-opacity:1;fill-rule:nonzero;stroke:none;font-family:Helvetica;font-style:oblique;font-variant:normal;font-size:11;writing-mode:lr;-inkscape-font-specification:Helvetica-Oblique"
             x="0 3.058 9.174 14.674 20.79 26.906 32.406 35.464 41.58 45.243"
             y="0"
             sodipodi:role="line"
             id="tspan4998">Inspectors</tspan></text>
<text
           transform="matrix(1,0,0,-1,187.82,303.78)"
           id="text5000"><tspan
             style="fill:#000000;fill-opacity:1;fill-rule:nonzero;stroke:none;font-family:Helvetica;font-style:oblique;font-variant:normal;font-size:11;writing-mode:lr;-inkscape-font-specification:Helvetica-Oblique"
             x="0 7.337 9.779 12.221 18.007 23.507"
             y="0"
             sodipodi:role="line"
             id="tspan5002">Alloys</tspan></text>
<text
           transform="matrix(1,0,0,-1,199.62,266.34)"
           id="text5004"><tspan
             style="fill:#000000;fill-opacity:1;fill-rule:nonzero;stroke:none;font-family:Helvetica;font-style:oblique;font-variant:normal;font-size:11;writing-mode:lr;-inkscape-font-specification:Helvetica-Oblique"
             x="0 6.116 12.232 18.348 22.176 24.618 30.118 36.234 42.35 45.408"
             y="0"
             sodipodi:role="line"
             id="tspan5006">Lubricants</tspan></text>
<text
           transform="matrix(1,0,0,-1,211.42,228.91)"
           id="text5008"><tspan
             style="fill:#000000;fill-opacity:1;fill-rule:nonzero;stroke:none;font-family:Helvetica;font-style:oblique;font-variant:normal;font-size:11;writing-mode:lr;-inkscape-font-specification:Helvetica-Oblique"
             x="0 7.337 13.453 19.569 25.685 28.127 30.569 36.685 40.348"
             y="0"
             sodipodi:role="line"
             id="tspan5010">Suppliers</tspan></text>
<text
           transform="matrix(1,0,0,-1,282.22,303.78)"
           id="text5012"><tspan
             style="fill:#000000;fill-opacity:1;fill-rule:nonzero;stroke:none;font-family:Helvetica;font-style:oblique;font-variant:normal;font-size:11;writing-mode:lr;-inkscape-font-specification:Helvetica-Oblique"
             x="0 7.337 13.453 15.895 18.953 22.011"
             y="0"
             sodipodi:role="line"
             id="tspan5014">Shifts</tspan></text>
<text
           transform="matrix(1,0,0,-1,294.01,266.34)"
           id="text5016"><tspan
             style="fill:#000000;fill-opacity:1;fill-rule:nonzero;stroke:none;font-family:Helvetica;font-style:oblique;font-variant:normal;font-size:11;writing-mode:lr;-inkscape-font-specification:Helvetica-Oblique"
             x="0 5.401 8.954 15.07 17.512 23.628 26.07 32.186"
             y="0"
             sodipodi:role="line"
             id="tspan5018">Training</tspan></text>
<text
           transform="matrix(1,0,0,-1,305.81,228.91)"
           id="text5020"><tspan
             style="fill:#000000;fill-opacity:1;fill-rule:nonzero;stroke:none;font-family:Helvetica;font-style:oblique;font-variant:normal;font-size:11;writing-mode:lr;-inkscape-font-specification:Helvetica-Oblique"
             x="0 8.558 14.674 20.79 24.343 30.459 33.517 39.633 43.296"
             y="0"
             sodipodi:role="line"
             id="tspan5022">Operators</tspan></text>
<text
           transform="matrix(1,0,0,-1,88.19,62.52)"
           id="text5024"><tspan
             style="fill:#000000;fill-opacity:1;fill-rule:nonzero;stroke:none;font-family:Helvetica;font-style:oblique;font-variant:normal;font-size:11;writing-mode:lr;-inkscape-font-specification:Helvetica-Oblique"
             x="0 5.401 11.517 20.68 26.796 32.912 36.465 42.581 45.639 51.755 55.418"
             y="0"
             sodipodi:role="line"
             id="tspan5026">Temperature</tspan></text>
<text
           transform="matrix(1,0,0,-1,99.99,99.95)"
           id="text5028"><tspan
             style="fill:#000000;fill-opacity:1;fill-rule:nonzero;stroke:none;font-family:Helvetica;font-style:oblique;font-variant:normal;font-size:11;writing-mode:lr;-inkscape-font-specification:Helvetica-Oblique"
             x="0 7.942 14.058 23.221 25.663 31.779 34.221 37.279"
             y="0"
             sodipodi:role="line"
             id="tspan5030">Humidity</tspan></text>
<text
           transform="matrix(1,0,0,-1,182.58,62.52)"
           id="text5032"><tspan
             style="fill:#000000;fill-opacity:1;fill-rule:nonzero;stroke:none;font-family:Helvetica;font-style:oblique;font-variant:normal;font-size:11;writing-mode:lr;-inkscape-font-specification:Helvetica-Oblique"
             x="0 7.337 10.89 17.006 22.286"
             y="0"
             sodipodi:role="line"
             id="tspan5034">Brake</tspan></text>
<text
           transform="matrix(1,0,0,-1,194.38,99.95)"
           id="text5036"><tspan
             style="fill:#000000;fill-opacity:1;fill-rule:nonzero;stroke:none;font-family:Helvetica;font-style:oblique;font-variant:normal;font-size:11;writing-mode:lr;-inkscape-font-specification:Helvetica-Oblique"
             x="0 7.337 13.453 19.569 25.685 31.801 37.917"
             y="0"
             sodipodi:role="line"
             id="tspan5038">Engager</tspan></text>
<text
           transform="matrix(1,0,0,-1,206.18,137.39)"
           id="text5040"><tspan
             style="fill:#000000;fill-opacity:1;fill-rule:nonzero;stroke:none;font-family:Helvetica;font-style:oblique;font-variant:normal;font-size:11;writing-mode:lr;-inkscape-font-specification:Helvetica-Oblique"
             x="0 7.337 13.453 19.569 22.011"
             y="0"
             sodipodi:role="line"
             id="tspan5042">Angle</tspan></text>
<text
           transform="matrix(1,0,0,-1,276.97,62.52)"
           id="text5044"><tspan
             style="fill:#000000;fill-opacity:1;fill-rule:nonzero;stroke:none;font-family:Helvetica;font-style:oblique;font-variant:normal;font-size:11;writing-mode:lr;-inkscape-font-specification:Helvetica-Oblique"
             x="0 7.337 13.453 19.569 25.685"
             y="0"
             sodipodi:role="line"
             id="tspan5046">Speed</tspan></text>
<text
           transform="matrix(1,0,0,-1,288.77,99.95)"
           id="text5048"><tspan
             style="fill:#000000;fill-opacity:1;fill-rule:nonzero;stroke:none;font-family:Helvetica;font-style:oblique;font-variant:normal;font-size:11;writing-mode:lr;-inkscape-font-specification:Helvetica-Oblique"
             x="0 7.337 9.779 15.895 22.011 28.127 31.185 39.017 45.133 51.249"
             y="0"
             sodipodi:role="line"
             id="tspan5050">Blade wear</tspan></text>
</g></g></g></svg>